<svg xmlns="http://www.w3.org/2000/svg" xmlns:xlink="http://www.w3.org/1999/xlink" viewBox="0 0 676 417"><defs><style>.a{fill:none;}.b{fill:#f7f5e7;}.c{fill:#bde4ff;}.d{fill:url(#a);}</style><pattern id="a" width="423.61" height="423.61" patternTransform="translate(30 105)" patternUnits="userSpaceOnUse" viewBox="0 0 423.61 423.61"><rect class="a" width="423.61" height="423.61"/><rect class="b" width="423.61" height="423.61"/><path class="c" d="M417.08,16.18V33.46h6.53v1h-6.53V53h6.53v1h-6.53V71.32h6.53v1h-6.53v17h6.53v1h-6.53v17.28h6.53v1h-6.53v17.8h6.53v1h-6.53v17.27h6.53v1h-6.53v17h6.53v1h-6.53v17.27h6.53v1h-6.53v18.55h6.53v1h-6.53V219h6.53v1h-6.53v17h6.53v1h-6.53v17.28h6.53v1h-6.53v18.93h6.53v1h-6.53v17.28h6.53v1h-6.53v17h6.53v1h-6.53v17.28h6.53v1h-6.53V349.5h6.53v1h-6.53v17.28h6.53v1h-6.53v17h6.53v1h-6.53v17.28h6.53v1h-6.53V423h6.53v.66H0V423H8.27V405.16H0v-1H8.27V386.86H0v-1H8.27v-17H0v-1H8.27V350.51H0v-1H8.27V330.94H0v-1H8.27V312.65H0v-1H8.27v-17H0v-1H8.27V276.3H0v-1H8.27V256.35H0v-1H8.27V238.06H0v-1H8.27V220H0v-1H8.27V201.71H0v-1H8.27V182.14H0v-1H8.27V163.85H0v-1H8.27v-17H0v-1H8.27V127.5H0v-1H8.27v-17.8H0v-1H8.27V90.39H0v-1H8.27v-17H0v-1H8.27V54H0V53H8.27V34.47H0v-1H8.27V16.18H0v-1H8.27V0h1V15.16h17.8V0h1V15.16H45.38V0h1V15.16h17V0h1V15.16H81.73V0h1V15.16H101.3V0h1V15.16h17.28V0h1V15.16h17V0h1V15.16h17.28V0h1V15.16h18.93V0h1V15.16h17.27V0h1V15.16h17V0h1V15.16h17.28V0h1V15.16H250.1V0h1V15.16H268.4V0h1V15.16h17V0h1V15.16h17.28V0h1V15.16h17.8V0h1V15.16h17.28V0h1V15.16h17V0h1V15.16H378.2V0h1V15.16h18.55V0h1V15.16h17.27V0h1V15.16h6.53v1Zm-37.86,0V33.46h18.55V16.18ZM195.2,220v17h17V220Zm17-1V201.71h-17V219Zm1,18h17.28V220H213.25Zm17.28-18V201.71H213.25V219Zm0-18.3V182.14H213.25v18.55Zm-18.29-18.55h-17v18.55h17Zm-18.06,0H176.91v18.55h17.27Zm-17.27,19.57V219h17.27V201.71Zm0,18.29v17h17.27V220Zm0,18.06v17.28h17.27V238.06Zm18.29,17.28h17V238.06h-17Zm18.05,0h17.28V238.06H213.25Zm18.3,0H250.1V238.06H231.55ZM250.1,237V220H231.55v17Zm0-18V201.71H231.55V219Zm0-18.3V182.14H231.55v18.55Zm0-19.57V163.85H231.55v17.27Zm-19.57-17.27H213.25v17.27h17.28Zm-18.29,0h-17v17.27h17Zm-18.06,0H176.91v17.27h17.27Zm-18.29,0H157v17.27h18.93ZM157,182.14v18.55h18.93V182.14Zm0,19.57V219h18.93V201.71ZM157,220v17h18.93V220Zm0,18.06v17.28h18.93V238.06Zm0,18.29v18.93h18.93V256.35Zm19.95,18.93h17.27V256.35H176.91Zm18.29,0h17V256.35h-17Zm18.05,0h17.28V256.35H213.25Zm18.3,0H250.1V256.35H231.55Zm19.57,0H268.4V256.35H251.12Zm17.28-19.94V238.06H251.12v17.28Zm0-18.3V220H251.12v17Zm0-18V201.71H251.12V219Zm0-18.3V182.14H251.12v18.55Zm0-19.57V163.85H251.12v17.27Zm0-18.29v-17H251.12v17Zm-18.3-17H231.55v17H250.1Zm-19.57,0H213.25v17h17.28Zm-18.29,0h-17v17h17Zm-18.06,0H176.91v17h17.27Zm-18.29,0H157v17h18.93Zm-19.95,0H138.66v17h17.28Zm-17.28,18.06v17.27h17.28V163.85Zm0,18.29v18.55h17.28V182.14Zm0,19.57V219h17.28V201.71Zm0,18.29v17h17.28V220Zm0,18.06v17.28h17.28V238.06Zm0,18.29v18.93h17.28V256.35Zm0,19.95v17.28h17.28V276.3ZM157,293.58h18.93V276.3H157Zm19.95,0h17.27V276.3H176.91Zm18.29,0h17V276.3h-17Zm18.05,0h17.28V276.3H213.25Zm18.3,0H250.1V276.3H231.55Zm19.57,0H268.4V276.3H251.12Zm18.29,0h17V276.3h-17Zm17-18.3V256.35h-17v18.93Zm0-19.94V238.06h-17v17.28Zm0-18.3V220h-17v17Zm0-18V201.71h-17V219Zm0-18.3V182.14h-17v18.55Zm0-19.57V163.85h-17v17.27Zm0-18.29v-17h-17v17Zm0-18.06V127.5h-17v17.27ZM268.4,127.5H251.12v17.27H268.4Zm-18.3,0H231.55v17.27H250.1Zm-19.57,0H213.25v17.27h17.28Zm-18.29,0h-17v17.27h17Zm-18.06,0H176.91v17.27h17.27Zm-18.29,0H157v17.27h18.93Zm-19.95,0H138.66v17.27h17.28Zm-18.29,0h-17v17.27h17Zm-17,18.29v17h17v-17Zm0,18.06v17.27h17V163.85Zm0,18.29v18.55h17V182.14Zm0,19.57V219h17V201.71Zm0,18.29v17h17V220Zm0,18.06v17.28h17V238.06Zm0,18.29v18.93h17V256.35Zm0,19.95v17.28h17V276.3Zm0,18.29v17h17v-17Zm18,17h17.28v-17H138.66Zm18.3,0h18.93v-17H157Zm19.95,0h17.27v-17H176.91Zm18.29,0h17v-17h-17Zm18.05,0h17.28v-17H213.25Zm18.3,0H250.1v-17H231.55Zm19.57,0H268.4v-17H251.12Zm18.29,0h17v-17h-17Zm18.06,0h17.28v-17H287.47Zm17.28-18.05V276.3H287.47v17.28Zm0-18.3V256.35H287.47v18.93Zm0-19.94V238.06H287.47v17.28Zm0-18.3V220H287.47v17Zm0-18V201.71H287.47V219Zm0-18.3V182.14H287.47v18.55Zm0-19.57V163.85H287.47v17.27Zm0-18.29v-17H287.47v17Zm0-18.06V127.5H287.47v17.27Zm0-18.29v-17.8H287.47v17.8Zm-18.3-17.8h-17v17.8h17Zm-18.05,0H251.12v17.8H268.4Zm-18.3,0H231.55v17.8H250.1Zm-19.57,0H213.25v17.8h17.28Zm-18.29,0h-17v17.8h17Zm-18.06,0H176.91v17.8h17.27Zm-18.29,0H157v17.8h18.93Zm-19.95,0H138.66v17.8h17.28Zm-18.29,0h-17v17.8h17Zm-18.06,0H102.31v17.8h17.28ZM102.31,127.5v17.27h17.28V127.5Zm0,18.29v17h17.28v-17Zm0,18.06v17.27h17.28V163.85Zm0,18.29v18.55h17.28V182.14Zm0,19.57V219h17.28V201.71Zm0,18.29v17h17.28V220Zm0,18.06v17.28h17.28V238.06Zm0,18.29v18.93h17.28V256.35Zm0,19.95v17.28h17.28V276.3Zm0,18.29v17h17.28v-17Zm0,18.06v17.28h17.28V312.65Zm18.3,17.28h17V312.65h-17Zm18,0h17.28V312.65H138.66Zm18.3,0h18.93V312.65H157Zm19.95,0h17.27V312.65H176.91Zm18.29,0h17V312.65h-17Zm18.05,0h17.28V312.65H213.25Zm18.3,0H250.1V312.65H231.55Zm19.57,0H268.4V312.65H251.12Zm18.29,0h17V312.65h-17Zm18.06,0h17.28V312.65H287.47Zm18.29,0h17.8V312.65h-17.8Zm17.8-18.3v-17h-17.8v17Zm0-18.05V276.3h-17.8v17.28Zm0-18.3V256.35h-17.8v18.93Zm0-19.94V238.06h-17.8v17.28Zm0-18.3V220h-17.8v17Zm0-18V201.71h-17.8V219Zm0-18.3V182.14h-17.8v18.55Zm0-19.57V163.85h-17.8v17.27Zm0-18.29v-17h-17.8v17Zm0-18.06V127.5h-17.8v17.27Zm0-18.29v-17.8h-17.8v17.8Zm0-18.81V90.39h-17.8v17.28ZM304.75,90.39H287.47v17.28h17.28Zm-18.3,0h-17v17.28h17Zm-18.05,0H251.12v17.28H268.4Zm-18.3,0H231.55v17.28H250.1Zm-19.57,0H213.25v17.28h17.28Zm-18.29,0h-17v17.28h17Zm-18.06,0H176.91v17.28h17.27Zm-18.29,0H157v17.28h18.93Zm-19.95,0H138.66v17.28h17.28Zm-18.29,0h-17v17.28h17Zm-18.06,0H102.31v17.28h17.28Zm-18.29,0H82.74v17.28H101.3ZM82.74,108.68v17.8H101.3v-17.8Zm0,18.82v17.27H101.3V127.5Zm0,18.29v17H101.3v-17Zm0,18.06v17.27H101.3V163.85Zm0,18.29v18.55H101.3V182.14Zm0,19.57V219H101.3V201.71Zm0,18.29v17H101.3V220Zm0,18.06v17.28H101.3V238.06Zm0,18.29v18.93H101.3V256.35Zm0,19.95v17.28H101.3V276.3Zm0,18.29v17H101.3v-17Zm0,18.06v17.28H101.3V312.65Zm0,18.29V349.5H101.3V330.94Zm19.57,18.56h17.28V330.94H102.31Zm18.3,0h17V330.94h-17Zm18,0h17.28V330.94H138.66Zm18.3,0h18.93V330.94H157Zm19.95,0h17.27V330.94H176.91Zm18.29,0h17V330.94h-17Zm18.05,0h17.28V330.94H213.25Zm18.3,0H250.1V330.94H231.55Zm19.57,0H268.4V330.94H251.12Zm18.29,0h17V330.94h-17Zm18.06,0h17.28V330.94H287.47Zm18.29,0h17.8V330.94h-17.8Zm18.81,0h17.28V330.94H324.57Zm17.28-19.57V312.65H324.57v17.28Zm0-18.3v-17H324.57v17Zm0-18.05V276.3H324.57v17.28Zm0-18.3V256.35H324.57v18.93Zm0-19.94V238.06H324.57v17.28Zm0-18.3V220H324.57v17Zm0-18V201.71H324.57V219Zm0-18.3V182.14H324.57v18.55Zm0-19.57V163.85H324.57v17.27Zm0-18.29v-17H324.57v17Zm0-18.06V127.5H324.57v17.27Zm0-18.29v-17.8H324.57v17.8Zm0-18.81V90.39H324.57v17.28Zm0-18.3v-17H324.57v17Zm-18.29-17h-17.8v17h17.8Zm-18.81,0H287.47v17h17.28Zm-18.3,0h-17v17h17Zm-18.05,0H251.12v17H268.4Zm-18.3,0H231.55v17H250.1Zm-19.57,0H213.25v17h17.28Zm-18.29,0h-17v17h17Zm-18.06,0H176.91v17h17.27Zm-18.29,0H157v17h18.93Zm-19.95,0H138.66v17h17.28Zm-18.29,0h-17v17h17Zm-18.06,0H102.31v17h17.28Zm-18.29,0H82.74v17H101.3Zm-19.57,0H64.45v17H81.73ZM64.45,90.39v17.28H81.73V90.39Zm0,18.29v17.8H81.73v-17.8Zm0,18.82v17.27H81.73V127.5Zm0,18.29v17H81.73v-17Zm0,18.06v17.27H81.73V163.85Zm0,18.29v18.55H81.73V182.14Zm0,19.57V219H81.73V201.71Zm0,18.29v17H81.73V220Zm0,18.06v17.28H81.73V238.06Zm0,18.29v18.93H81.73V256.35Zm0,19.95v17.28H81.73V276.3Zm0,18.29v17H81.73v-17Zm0,18.06v17.28H81.73V312.65Zm0,18.29V349.5H81.73V330.94Zm0,19.57v17.28H81.73V350.51Zm18.29,17.28H101.3V350.51H82.74Zm19.57,0h17.28V350.51H102.31Zm18.3,0h17V350.51h-17Zm18,0h17.28V350.51H138.66Zm18.3,0h18.93V350.51H157Zm19.95,0h17.27V350.51H176.91Zm18.29,0h17V350.51h-17Zm18.05,0h17.28V350.51H213.25Zm18.3,0H250.1V350.51H231.55Zm19.57,0H268.4V350.51H251.12Zm18.29,0h17V350.51h-17Zm18.06,0h17.28V350.51H287.47Zm18.29,0h17.8V350.51h-17.8Zm18.81,0h17.28V350.51H324.57Zm18.3,0h17V350.51h-17Zm17-18.29V330.94h-17V349.5Zm0-19.57V312.65h-17v17.28Zm0-18.3v-17h-17v17Zm0-18.05V276.3h-17v17.28Zm0-18.3V256.35h-17v18.93Zm0-19.94V238.06h-17v17.28Zm0-18.3V220h-17v17Zm0-18V201.71h-17V219Zm0-18.3V182.14h-17v18.55Zm0-19.57V163.85h-17v17.27Zm0-18.29v-17h-17v17Zm0-18.06V127.5h-17v17.27Zm0-18.29v-17.8h-17v17.8Zm0-18.81V90.39h-17v17.28Zm0-18.3v-17h-17v17Zm0-18.05V54h-17V71.32ZM341.85,54H324.57V71.32h17.28Zm-18.29,0h-17.8V71.32h17.8Zm-18.81,0H287.47V71.32h17.28Zm-18.3,0h-17V71.32h17ZM268.4,54H251.12V71.32H268.4Zm-18.3,0H231.55V71.32H250.1Zm-19.57,0H213.25V71.32h17.28Zm-18.29,0h-17V71.32h17Zm-18.06,0H176.91V71.32h17.27Zm-18.29,0H157V71.32h18.93Zm-19.95,0H138.66V71.32h17.28Zm-18.29,0h-17V71.32h17Zm-18.06,0H102.31V71.32h17.28ZM101.3,54H82.74V71.32H101.3ZM81.73,54H64.45V71.32H81.73Zm-18.3,0h-17V71.32h17Zm-17,18.29v17h17v-17Zm0,18.06v17.28h17V90.39Zm0,18.29v17.8h17v-17.8Zm0,18.82v17.27h17V127.5Zm0,18.29v17h17v-17Zm0,18.06v17.27h17V163.85Zm0,18.29v18.55h17V182.14Zm0,19.57V219h17V201.71Zm0,18.29v17h17V220Zm0,18.06v17.28h17V238.06Zm0,18.29v18.93h17V256.35Zm0,19.95v17.28h17V276.3Zm0,18.29v17h17v-17Zm0,18.06v17.28h17V312.65Zm0,18.29V349.5h17V330.94Zm0,19.57v17.28h17V350.51Zm0,18.3v17h17v-17Zm18.05,17H81.73v-17H64.45Zm18.29,0H101.3v-17H82.74Zm19.57,0h17.28v-17H102.31Zm18.3,0h17v-17h-17Zm18,0h17.28v-17H138.66Zm18.3,0h18.93v-17H157Zm19.95,0h17.27v-17H176.91Zm18.29,0h17v-17h-17Zm18.05,0h17.28v-17H213.25Zm18.3,0H250.1v-17H231.55Zm19.57,0H268.4v-17H251.12Zm18.29,0h17v-17h-17Zm18.06,0h17.28v-17H287.47Zm18.29,0h17.8v-17h-17.8Zm18.81,0h17.28v-17H324.57Zm18.3,0h17v-17h-17Zm18.05,0H378.2v-17H360.92Zm17.28-18.06V350.51H360.92v17.28Zm0-18.29V330.94H360.92V349.5Zm0-19.57V312.65H360.92v17.28Zm0-18.3v-17H360.92v17Zm0-18.05V276.3H360.92v17.28Zm0-18.3V256.35H360.92v18.93Zm0-19.94V238.06H360.92v17.28Zm0-18.3V220H360.92v17Zm0-18V201.71H360.92V219Zm0-18.3V182.14H360.92v18.55Zm0-19.57V163.85H360.92v17.27Zm0-18.29v-17H360.92v17Zm0-18.06V127.5H360.92v17.27Zm0-18.29v-17.8H360.92v17.8Zm0-18.81V90.39H360.92v17.28Zm0-18.3v-17H360.92v17Zm0-18.05V54H360.92V71.32Zm0-18.3V34.47H360.92V53ZM359.91,34.47h-17V53h17Zm-18.06,0H324.57V53h17.28Zm-18.29,0h-17.8V53h17.8Zm-18.81,0H287.47V53h17.28Zm-18.3,0h-17V53h17Zm-18.05,0H251.12V53H268.4Zm-18.3,0H231.55V53H250.1Zm-19.57,0H213.25V53h17.28Zm-18.29,0h-17V53h17Zm-18.06,0H176.91V53h17.27Zm-18.29,0H157V53h18.93Zm-19.95,0H138.66V53h17.28Zm-18.29,0h-17V53h17Zm-18.06,0H102.31V53h17.28Zm-18.29,0H82.74V53H101.3Zm-19.57,0H64.45V53H81.73Zm-18.3,0h-17V53h17Zm-18,0H28.1V53H45.38ZM28.1,54V71.32H45.38V54Zm0,18.29v17H45.38v-17Zm0,18.06v17.28H45.38V90.39Zm0,18.29v17.8H45.38v-17.8Zm0,18.82v17.27H45.38V127.5Zm0,18.29v17H45.38v-17Zm0,18.06v17.27H45.38V163.85Zm0,18.29v18.55H45.38V182.14Zm0,19.57V219H45.38V201.71Zm0,18.29v17H45.38V220Zm0,18.06v17.28H45.38V238.06Zm0,18.29v18.93H45.38V256.35Zm0,19.95v17.28H45.38V276.3Zm0,18.29v17H45.38v-17Zm0,18.06v17.28H45.38V312.65Zm0,18.29V349.5H45.38V330.94Zm0,19.57v17.28H45.38V350.51Zm0,18.3v17H45.38v-17Zm0,18.05v17.28H45.38V386.86Zm18.3,17.28h17V386.86h-17Zm18.05,0H81.73V386.86H64.45Zm18.29,0H101.3V386.86H82.74Zm19.57,0h17.28V386.86H102.31Zm18.3,0h17V386.86h-17Zm18,0h17.28V386.86H138.66Zm18.3,0h18.93V386.86H157Zm19.95,0h17.27V386.86H176.91Zm18.29,0h17V386.86h-17Zm18.05,0h17.28V386.86H213.25Zm18.3,0H250.1V386.86H231.55Zm19.57,0H268.4V386.86H251.12Zm18.29,0h17V386.86h-17Zm18.06,0h17.28V386.86H287.47Zm18.29,0h17.8V386.86h-17.8Zm18.81,0h17.28V386.86H324.57Zm18.3,0h17V386.86h-17Zm18.05,0H378.2V386.86H360.92Zm18.3,0h18.55V386.86H379.22Zm18.55-18.29v-17H379.22v17Zm0-18.06V350.51H379.22v17.28Zm0-18.29V330.94H379.22V349.5Zm0-19.57V312.65H379.22v17.28Zm0-18.3v-17H379.22v17Zm0-18.05V276.3H379.22v17.28Zm0-18.3V256.35H379.22v18.93Zm0-19.94V238.06H379.22v17.28Zm0-18.3V220H379.22v17Zm0-18V201.71H379.22V219Zm0-18.3V182.14H379.22v18.55Zm0-19.57V163.85H379.22v17.27Zm0-18.29v-17H379.22v17Zm0-18.06V127.5H379.22v17.27Zm0-18.29v-17.8H379.22v17.8Zm0-18.81V90.39H379.22v17.28Zm0-18.3v-17H379.22v17Zm0-18.05V54H379.22V71.32Zm0-18.3V34.47H379.22V53ZM360.92,16.18V33.46H378.2V16.18Zm-18.05,0V33.46h17V16.18Zm-18.3,0V33.46h17.28V16.18Zm-18.81,0V33.46h17.8V16.18Zm-18.29,0V33.46h17.28V16.18Zm-18.06,0V33.46h17V16.18Zm-18.29,0V33.46H268.4V16.18Zm-19.57,0V33.46H250.1V16.18Zm-18.3,0V33.46h17.28V16.18Zm-18.05,0V33.46h17V16.18Zm-18.29,0V33.46h17.27V16.18Zm-19.95,0V33.46h18.93V16.18Zm-18.3,0V33.46h17.28V16.18Zm-18,0V33.46h17V16.18Zm-18.3,0V33.46h17.28V16.18Zm-19.57,0V33.46H101.3V16.18Zm-18.29,0V33.46H81.73V16.18Zm-18.05,0V33.46h17V16.18Zm-18.3,0V33.46H45.38V16.18ZM9.29,33.46h17.8V16.18H9.29ZM9.29,53h17.8V34.47H9.29Zm0,18.3h17.8V54H9.29Zm0,18.05h17.8v-17H9.29Zm0,18.3h17.8V90.39H9.29Zm0,18.81h17.8v-17.8H9.29Zm0,18.29h17.8V127.5H9.29Zm0,18.06h17.8v-17H9.29Zm0,18.29h17.8V163.85H9.29Zm0,19.57h17.8V182.14H9.29Zm0,18.3h17.8V201.71H9.29Zm0,18h17.8V220H9.29Zm0,18.3h17.8V238.06H9.29Zm0,19.94h17.8V256.35H9.29Zm0,18.3h17.8V276.3H9.29Zm0,18.05h17.8v-17H9.29Zm0,18.3h17.8V312.65H9.29Zm0,19.57h17.8V330.94H9.29Zm0,18.29h17.8V350.51H9.29Zm0,18.06h17.8v-17H9.29Zm0,18.29h17.8V386.86H9.29ZM27.09,423V405.16H9.29V423Zm18.29,0V405.16H28.1V423Zm18,0V405.16h-17V423Zm18.3,0V405.16H64.45V423Zm19.57,0V405.16H82.74V423Zm18.29,0V405.16H102.31V423Zm18.06,0V405.16h-17V423Zm18.29,0V405.16H138.66V423Zm19.95,0V405.16H157V423Zm18.29,0V405.16H176.91V423Zm18.06,0V405.16h-17V423Zm18.29,0V405.16H213.25V423Zm19.57,0V405.16H231.55V423Zm18.3,0V405.16H251.12V423Zm18.05,0V405.16h-17V423Zm18.3,0V405.16H287.47V423Zm18.81,0V405.16h-17.8V423Zm18.29,0V405.16H324.57V423Zm18.06,0V405.16h-17V423Zm18.29,0V405.16H360.92V423Zm19.57,0V405.16H379.22V423Zm18.29-17.79H398.79V423h17.27Zm0-18.3H398.79v17.28h17.27Zm0-18.05H398.79v17h17.27Zm0-18.3H398.79v17.28h17.27Zm0-19.57H398.79V349.5h17.27Zm0-18.29H398.79v17.28h17.27Zm0-18.06H398.79v17h17.27Zm0-18.29H398.79v17.28h17.27Zm0-19.95H398.79v18.93h17.27Zm0-18.29H398.79v17.28h17.27Zm0-18.06H398.79v17h17.27Zm0-18.29H398.79V219h17.27Zm0-19.57H398.79v18.55h17.27Zm0-18.29H398.79v17.27h17.27Zm0-18.06H398.79v17h17.27Zm0-18.29H398.79v17.27h17.27Zm0-18.82H398.79v17.8h17.27Zm0-18.29H398.79v17.28h17.27Zm0-18.06H398.79v17h17.27Zm0-18.29H398.79V71.32h17.27Zm0-19.57H398.79V53h17.27Zm0-18.29H398.79V33.46h17.27Z"/></pattern></defs><title>Asset 1</title><rect class="d" width="676" height="417"/></svg>